HIERARCHY
ROOT pelvis
{
  OFFSET 0 100 0
  CHANNELS 6 Xposition Yposition Zposition Zrotation Xrotation Yrotation
  JOINT pelvis_right_femur
  {
    OFFSET -10.78128 -3.44521 -0.5502486
    CHANNELS 3 Zrotation Xrotation Yrotation
    JOINT right_femur_tibia
    {
      OFFSET -0.8047443 -44.0398 -0.1307829
      CHANNELS 3 Zrotation Xrotation Yrotation
      JOINT right_tibia_foot
      {
        OFFSET 3.006224 -47.83518 -5
        CHANNELS 3 Zrotation Xrotation Yrotation
        End Site
        {
          OFFSET 0 -5 15
        }
      }
    }
  }
  JOINT pelvis_left_femur
  {
    OFFSET 10.78128 -3.44521 -0.5502486
    CHANNELS 3 Zrotation Xrotation Yrotation
    JOINT left_femur_tibia
    {
      OFFSET 0.8047443 -44.0398 -0.1307829
      CHANNELS 3 Zrotation Xrotation Yrotation
      JOINT left_tibia_foot
      {
        OFFSET -4.370144 -48.10324 -4.275266
        CHANNELS 3 Zrotation Xrotation Yrotation
        End Site
        {
          OFFSET 0 -5 15
        }
      }
    }
  }
  JOINT pelvis_spine1
  {
    OFFSET 0 6.468898 -3.129235
    CHANNELS 3 Zrotation Xrotation Yrotation
    JOINT spine1
    {
      OFFSET 0 23.15396 4.99043
      CHANNELS 3 Zrotation Xrotation Yrotation
      JOINT spine2
      {
        OFFSET 0 20.79997 -5.064912
        CHANNELS 3 Zrotation Xrotation Yrotation
        JOINT neck
        {
          OFFSET 0 14.38658 9.616178
          CHANNELS 3 Zrotation Xrotation Yrotation
          End Site
          {
            OFFSET 0 20 0
          }
        }
      }
      JOINT right_manubrium
      {
        OFFSET -5.722621 16.35077 3.967754
        CHANNELS 3 Zrotation Xrotation Yrotation
        JOINT right_clavicle
        {
          OFFSET -13.16364 1.694482 -4.693211
          CHANNELS 3 Zrotation Xrotation Yrotation
          JOINT right_humerus
          {
            OFFSET -28.5034 -0.3100689 -2.792744
            CHANNELS 3 Zrotation Xrotation Yrotation
            JOINT right_radius
            {
              OFFSET -25.15693 0.02248979 -1.271978
              CHANNELS 3 Zrotation Xrotation Yrotation
              End Site
              {
                OFFSET -15 0 0
              }
            }
          }
        }
      }
      JOINT left_manubrium
      {
        OFFSET 5.722621 16.35077 3.967754
        CHANNELS 3 Zrotation Xrotation Yrotation
        JOINT left_clavicle
        {
          OFFSET 13.16364 1.694482 -4.693211
          CHANNELS 3 Zrotation Xrotation Yrotation
          JOINT left_humerus
          {
            OFFSET 29.39168 -1.063119 -2.237045
            CHANNELS 3 Zrotation Xrotation Yrotation
            JOINT left_radius
            {
              OFFSET 24.59957 -0.9528479 0.9047498
              CHANNELS 3 Zrotation Xrotation Yrotation
              End Site
              {
                OFFSET 15 -0 -0
              }
            }
          }
        }
      }
    }
  }
}
MOTION
Frames: 11
Frame Time: 0.0416666666667
0 103.5113 0 -0.4219342 0.0256424 0.2887538 6.68101 -21.19096 10.18018 -0 38.10547 -0 -5.116836 -14.91722 -3.904612 -6.264291 11.45709 -21.76771 -0 5.936951 -0 10.53452 -16.87489 25.83775 -2.070353 -4.25882 5.077608 2.412002 10.26395 -7.818578 2.308486 20.41138 5.261957 1.612414 -24.87 9.981519 4.564165 -21.56812 11.18025 86.81145 31.3361 -18.4199 -0 0 19.54623 -6.193926 9.976268 3.323387 6.376878 -19.55595 -0.7531357 -94.23592 21.30578 24.16413 0 0 -13.08413 13.04231 16.89617 -1.109568
0.4547643 103.5037 2.461348 -0.4475857 0.349809 0.5651951 6.732862 -22.51046 9.856397 -0 36.50615 -0 -5.387774 -14.46398 -3.660328 -6.319301 12.09128 -21.87706 -0 5.571037 -0 10.40939 -17.58412 25.88056 -2.183213 -4.009918 4.853194 2.558806 9.993938 -7.842409 2.209931 20.5802 5.566413 1.864727 -25.14073 10.06059 4.654421 -21.15124 11.17965 86.82928 31.79827 -18.74194 -0 0 18.67184 -6.137403 9.543594 3.357886 6.565507 -19.71043 -0.7559143 -94.10898 21.83871 23.44614 0 0 -13.83479 12.95029 16.96764 -0.9969017
0.9791627 103.836 5.431387 -0.5552346 1.558051 0.8418565 6.882634 -21.66724 10.41227 -0 34.6606 -0 -3.889233 -14.14156 -3.523674 -5.950929 9.204402 -19.9225 -0 11.39011 -0 7.474855 -16.13202 22.44761 -2.11835 -3.715504 5.339993 2.837963 10.2339 -8.377821 1.590679 19.51795 6.022202 2.311747 -25.31124 9.31214 6.353566 -20.71191 11.79089 85.60879 34.7645 -19.22141 -0 0 18.90376 -6.948182 11.12179 4.400394 5.744518 -19.64652 -0.879575 -93.27778 22.48497 24.01426 0 0 -16.01129 9.489491 14.43372 3.212028
1.535955 104.2502 8.672488 -0.6332795 2.212912 1.104603 6.966081 -21.51904 10.5116 -0 33.16632 -0 -3.272482 -13.70709 -3.356499 -5.744402 7.851414 -18.89145 -0 14.31199 -0 6.015965 -15.49672 20.76689 -2.091462 -3.499459 5.527603 2.99944 10.30689 -8.629091 1.267071 19.04596 6.320136 2.59919 -25.47169 8.960213 7.140711 -20.3921 12.08538 85.08379 36.24441 -19.52316 -0 0 18.73402 -7.448435 11.77121 4.97763 5.406438 -19.69446 -0.961156 -92.80687 22.8289 24.0692 0 0 -17.28481 7.958902 13.11804 5.112657
2.137466 104.7688 12.17084 -0.6911421 2.739628 1.356965 6.99821 -20.95724 10.70543 -0 32.14206 -0 -2.580582 -13.5421 -3.277587 -5.504598 6.342242 -17.90845 -0 17.05341 -0 4.650073 -14.70303 19.22156 -2.060284 -3.332362 5.761171 3.116458 10.40621 -8.847806 0.9869584 18.57302 6.523153 2.808219 -25.52405 8.600187 7.89002 -20.17808 12.35571 84.50353 37.58694 -19.64793 -0 0 18.83991 -7.929156 12.47895 5.533359 5.02739 -19.65042 -1.02517 -92.42742 23.13867 24.31717 0 0 -18.27435 6.446998 11.79653 6.997439
2.778302 105.3572 15.87732 -0.7417261 3.130005 1.598778 7.01323 -20.46418 10.8203 -0 31.27095 -0 -2.060791 -13.38436 -3.204962 -5.295156 5.117383 -17.11203 -0 19.20149 -0 3.599646 -14.05151 18.04245 -2.03068 -3.194973 5.944073 3.200525 10.4854 -9.004808 0.7735251 18.21659 6.676419 2.969406 -25.55784 8.31856 8.442067 -20.01471 12.56113 84.05909 38.58637 -19.71429 -0 0 18.91111 -8.347074 13.01461 5.989573 4.739462 -19.62129 -1.080511 -92.13226 23.35671 24.49905 0 0 -19.03141 5.330668 10.74568 8.403624
3.458736 106.0026 19.7595 -0.7802458 3.434394 1.830188 7.002031 -19.9029 10.93355 -0 30.58741 -0 -1.588472 -13.33226 -3.158772 -5.094014 3.983365 -16.42511 -0 20.98965 -0 2.701536 -13.44587 17.06141 -2.0085 -3.078991 6.113434 3.262206 10.5518 -9.12763 0.5973001 17.91322 6.788218 3.092538 -25.55476 8.068957 8.912197 -19.89639 12.73228 83.63659 39.42692 -19.70177 -0 0 19.04459 -8.717311 13.48688 6.394359 4.478482 -19.5655 -1.123865 -91.90552 23.56298 24.70505 0 0 -19.61864 4.347214 9.817065 9.645633
4.176905 106.6914 23.79018 -0.8116717 3.672896 2.051585 6.976268 -19.34246 11.02454 -0 30.00849 -0 -1.181392 -13.32328 -3.122011 -4.906673 2.965252 -15.83223 -0 22.46896 -0 1.942793 -12.90643 16.25065 -1.99077 -2.978741 6.262678 3.30775 10.60636 -9.221882 0.4515617 17.66154 6.873309 3.189914 -25.53485 7.852808 9.300525 -19.80824 12.87386 83.25517 40.11957 -19.64545 -0 0 19.18991 -9.049693 13.88787 6.752359 4.252616 -19.50435 -1.160253 -91.72766 23.74542 24.90163 0 0 -20.08419 3.509784 9.014015 10.70679
4.931388 107.4134 27.94584 -0.835619 3.863581 2.263261 6.935742 -18.77969 11.10441 -0 29.51911 -0 -0.8173635 -13.36479 -3.094045 -4.731639 2.035545 -15.31825 -0 23.68572 -0 1.285498 -12.42489 15.57065 -1.980132 -2.889749 6.396206 3.341835 10.64732 -9.294701 0.3281372 17.44929 6.939019 3.268102 -25.50033 7.661804 9.633235 -19.7423 12.99247 82.89393 40.71159 -19.54978 -0 0 19.35193 -9.346556 14.23488 7.073799 4.051479 -19.43305 -1.189124 -91.59138 23.92593 25.0957 0 0 -20.45585 2.763535 8.305048 11.65295
5.720427 108.1596 32.20704 -0.853786 4.018604 2.465698 6.884494 -18.23099 11.17149 -0 29.09199 -0 -0.4927374 -13.43812 -3.070186 -4.569423 1.188967 -14.87054 -0 24.68244 -0 0.7114279 -11.99953 14.99658 -1.975751 -2.809314 6.514617 3.367623 10.67582 -9.350529 0.2222563 17.27044 6.991713 3.332727 -25.45766 7.492861 9.919613 -19.69166 13.09213 82.55273 41.22231 -19.42771 -0 0 19.51811 -9.613415 14.53364 7.364302 3.873149 -19.35664 -1.212056 -91.48705 24.1051 25.28061 0 0 -20.75758 2.095101 7.677114 12.50057
6.542177 108.9226 36.557 -0.8668804 4.147909 2.659465 6.824448 -17.70606 11.22775 -0 28.71349 -0 -0.2008742 -13.53545 -3.048409 -4.420667 0.4199874 -14.48135 -0 25.48816 -0 0.2043406 -11.62868 14.50928 -1.978151 -2.73511 6.618767 3.387705 10.69136 -9.392963 0.1301064 17.11981 7.036228 3.388058 -25.41056 7.343196 10.1699 -19.65032 13.17569 82.22764 41.67175 -19.28701 -0 0 19.68248 -9.852294 14.78961 7.627875 3.714851 -19.27617 -1.229321 -91.4085 24.28882 25.45334 0 0 -21.00669 1.487469 7.117005 13.27064
